<svg xmlns="http://www.w3.org/2000/svg" viewBox="0 0 48 48" width="48" height="48">
  <!-- I5: mechanical ventilation unit, running -->
  <g fill="none" stroke-linecap="round" stroke-linejoin="round">
    <rect x="5" y="5" width="38" height="38" rx="6" fill="#e4f0f3" stroke="#1d2a33" stroke-width="2.8"/>
    <circle cx="24" cy="24" r="12.5" fill="#ffffff" stroke="#1d2a33" stroke-width="2.6"/>
    <g fill="#1f6f8b" stroke="#1f6f8b" stroke-width="1.6">
      <path d="M24 24 C 24 15, 30 11, 33.5 14 C 36 16.5, 31 21, 24 24 Z"/>
      <path d="M24 24 C 24 15, 30 11, 33.5 14 C 36 16.5, 31 21, 24 24 Z" transform="rotate(120 24 24)"/>
      <path d="M24 24 C 24 15, 30 11, 33.5 14 C 36 16.5, 31 21, 24 24 Z" transform="rotate(240 24 24)"/>
    </g>
    <circle cx="24" cy="24" r="2.6" fill="#ffffff" stroke="#1d2a33" stroke-width="2"/>
  </g>
</svg>
